<svg width="16" height="14" viewBox="0 0 16 14" fill="none" xmlns="http://www.w3.org/2000/svg">
<path d="M8.75 13.8218C9.95792 12.9894 11.4212 12.5023 13 12.5023C13.7103 12.5023 14.3964 12.6009 15.0459 12.7846C15.272 12.8485 15.515 12.8028 15.7024 12.661C15.8899 12.5193 16 12.2979 16 12.0629V1.06287C16 0.727267 15.7771 0.432516 15.4541 0.341179C14.6731 0.120281 13.8497 0.00231934 13 0.00231934C11.4636 0.00231934 10.016 0.387811 8.75 1.06719V13.8218Z" fill="white"/>
<path d="M7.25 1.06719C5.98396 0.387811 4.5364 0.00231934 3 0.00231934C2.15029 0.00231934 1.32689 0.120281 0.54588 0.341179C0.222948 0.432516 0 0.727267 0 1.06287V12.0629C0 12.2979 0.11014 12.5193 0.297557 12.661C0.484973 12.8028 0.727998 12.8485 0.95412 12.7846C1.60361 12.6009 2.28967 12.5023 3 12.5023C4.57884 12.5023 6.04208 12.9894 7.25 13.8218V1.06719Z" fill="white"/>
</svg>
