<svg width="10" height="14" viewBox="0 0 10 14" fill="none" xmlns="http://www.w3.org/2000/svg">
<path d="M7.61772 9.27009C7.25686 9.49227 7 9.86712 7 10.2909C7 10.5168 6.85818 10.7205 6.64083 10.7822C6.11933 10.9301 5.56891 11.0093 5 11.0093C4.43109 11.0093 3.88067 10.9301 3.35917 10.7822C3.14182 10.7205 3 10.5168 3 10.2909C3 9.86712 2.74314 9.49227 2.38228 9.27009C0.952934 8.39007 0 6.81096 0 5.00928C0 2.24785 2.23858 0.00927734 5 0.00927734C7.76142 0.00927734 10 2.24785 10 5.00928C10 6.81096 9.04707 8.39007 7.61772 9.27009Z" fill="white"/>
<path d="M3.86696 12.4244C3.45741 12.3623 3.07514 12.6441 3.01313 13.0536C2.95112 13.4632 3.23286 13.8454 3.64241 13.9075C4.08559 13.9746 4.53898 14.0093 5 14.0093C5.46102 14.0093 5.91442 13.9746 6.3576 13.9075C6.76715 13.8454 7.04888 13.4632 6.98688 13.0536C6.92487 12.6441 6.5426 12.3623 6.13305 12.4244C5.76394 12.4802 5.3856 12.5093 5 12.5093C4.6144 12.5093 4.23607 12.4802 3.86696 12.4244Z" fill="white"/>
</svg>
