<svg width="16" height="16" viewBox="0 0 16 16" fill="none" xmlns="http://www.w3.org/2000/svg">
<path d="M0.87868 5.12338C2.05025 6.29495 3.94975 6.29495 5.12132 5.12338C5.26529 4.97941 5.39156 4.82445 5.50015 4.6612C6.03763 5.46943 6.95661 6.00209 8 6.00209C9.04353 6.00209 9.96262 5.46929 10.5001 4.66088C10.6087 4.82426 10.7351 4.97934 10.8791 5.12341C12.0507 6.29499 13.9502 6.29499 15.1218 5.12341C16.2933 3.95184 16.2933 2.05235 15.1218 0.880773L14.8291 0.588106C14.454 0.213033 13.9453 0.00231934 13.4149 0.00231934H2.58552C2.05509 0.00231934 1.54638 0.213033 1.17131 0.588105L0.87868 0.880737C-0.292893 2.05231 -0.292893 3.95181 0.87868 5.12338Z" fill="white"/>
<path d="M1 7.03455C2.42799 7.74299 4.15393 7.64627 5.50057 6.74437C6.21499 7.22239 7.07471 7.50209 8 7.50209C8.92537 7.50209 9.78517 7.22234 10.4996 6.74423C11.8462 7.64619 13.572 7.74305 15 7.03481V14.5023H15.25C15.6642 14.5023 16 14.8381 16 15.2523C16 15.6665 15.6642 16.0023 15.25 16.0023H10.75C10.3358 16.0023 10 15.6665 10 15.2523V11.7523C10 11.3381 9.66421 11.0023 9.25 11.0023H6.75C6.33579 11.0023 6 11.3381 6 11.7523V15.2523C6 15.6665 5.66421 16.0023 5.25 16.0023H0.75C0.335786 16.0023 0 15.6665 0 15.2523C0 14.8381 0.335786 14.5023 0.75 14.5023H1V7.03455Z" fill="white"/>
</svg>
