<svg width="18" height="16" viewBox="0 0 18 16" fill="none" xmlns="http://www.w3.org/2000/svg">
<path d="M3 3.00464H15V10.0046H3V3.00464Z" fill="white"/>
<path fill-rule="evenodd" clip-rule="evenodd" d="M0 1.50464C0 0.676211 0.671573 0.00463867 1.5 0.00463867H16.5C17.3284 0.00463867 18 0.676211 18 1.50464V11.5046C18 12.3331 17.3284 13.0046 16.5 13.0046H11V14.5046H14.25C14.6642 14.5046 15 14.8404 15 15.2546C15 15.6689 14.6642 16.0046 14.25 16.0046H3.75C3.33579 16.0046 3 15.6689 3 15.2546C3 14.8404 3.33579 14.5046 3.75 14.5046H7V13.0046H1.5C0.671574 13.0046 0 12.3331 0 11.5046V1.50464ZM16.5 1.50464L1.5 1.50464V11.5046H16.5V1.50464Z" fill="white"/>
</svg>
