<svg width="14" height="16" viewBox="0 0 14 16" fill="none" xmlns="http://www.w3.org/2000/svg">
<path d="M7 6.00684C8.65685 6.00684 10 4.66369 10 3.00684C10 1.34998 8.65685 0.00683594 7 0.00683594C5.34315 0.00683594 4 1.34998 4 3.00684C4 4.66369 5.34315 6.00684 7 6.00684Z" fill="white"/>
<path d="M0.465171 12.5004C0.270287 13.0084 0.444349 13.5778 0.874199 13.9114C2.56656 15.2249 4.69202 16.0068 7.00012 16.0068C9.31057 16.0068 11.438 15.2233 13.1312 13.9074C13.5608 13.5735 13.7345 13.004 13.5393 12.4961C12.5301 9.87037 9.98419 8.00684 7.00307 8.00684C4.02032 8.00684 1.47329 9.87241 0.465171 12.5004Z" fill="white"/>
</svg>
