<svg width="16" height="16" viewBox="0 0 16 16" fill="none" xmlns="http://www.w3.org/2000/svg">
<path fill-rule="evenodd" clip-rule="evenodd" d="M0 2.25C0 1.00736 1.00736 0 2.25 0H13.75C14.9926 0 16 1.00736 16 2.25V10.75C16 11.9926 14.9926 13 13.75 13H10.6448C10.8417 13.6619 11.2292 14.2418 11.7449 14.6767C11.9856 14.8798 12.0738 15.2116 11.9657 15.5074C11.8576 15.8032 11.5762 16 11.2613 16H4.73881C4.42387 16 4.14248 15.8032 4.03437 15.5074C3.92627 15.2116 4.01449 14.8798 4.25522 14.6767C4.77086 14.2418 5.15838 13.6619 5.35525 13H2.25C1.00736 13 0 11.9926 0 10.75V2.25ZM1.5 2.25C1.5 1.83579 1.83579 1.5 2.25 1.5H13.75C14.1642 1.5 14.5 1.83579 14.5 2.25V9.75C14.5 10.1642 14.1642 10.5 13.75 10.5H2.25C1.83579 10.5 1.5 10.1642 1.5 9.75V2.25Z" fill="white"/>
</svg>
