<svg width="19" height="19" viewBox="0 0 19 19" fill="none" xmlns="http://www.w3.org/2000/svg">
<path fill-rule="evenodd" clip-rule="evenodd" d="M13.5 9.00684C15.9853 9.00684 18 6.99212 18 4.50684C18 4.02467 17.9242 3.56021 17.7838 3.12475C17.6792 2.80051 17.2734 2.73367 17.0325 2.97456L14.3402 5.66686C14.2098 5.79725 14.0168 5.84847 13.8466 5.77757C13.1172 5.47379 12.5334 4.89035 12.2292 4.16114C12.1582 3.99087 12.2094 3.79772 12.3398 3.66726L15.0327 0.974431C15.2735 0.733552 15.2067 0.327751 14.8825 0.223194C14.4469 0.0827174 13.9823 0.00683594 13.5 0.00683594C11.0147 0.00683594 9 2.02155 9 4.50684C9 4.60467 9.00312 4.70177 9.00927 4.79805C9.06503 5.67102 8.88174 6.60539 8.20974 7.16539L0.980174 13.19C0.359099 13.7076 0 14.4743 0 15.2827C0 16.7872 1.21962 18.0068 2.7241 18.0068C3.53256 18.0068 4.29925 17.6477 4.81681 17.0267L10.8414 9.7971C11.4014 9.1251 12.3358 8.9418 13.2088 8.99756C13.3051 9.00371 13.4022 9.00684 13.5 9.00684ZM4 15.0068C4 15.5591 3.55228 16.0068 3 16.0068C2.44772 16.0068 2 15.5591 2 15.0068C2 14.4546 2.44772 14.0068 3 14.0068C3.55228 14.0068 4 14.4546 4 15.0068Z" fill="white"/>
<path d="M13.5 10.5068C13.6731 10.5068 13.8445 10.4995 14.0138 10.4851L17.7678 14.2391C18.7441 15.2154 18.7441 16.7983 17.7678 17.7746C16.7915 18.7509 15.2086 18.7509 14.2323 17.7746L9.82161 13.364L11.9938 10.7574C12.0455 10.6953 12.1413 10.6199 12.3357 10.5621C12.5378 10.5019 12.805 10.4748 13.1132 10.4945C13.2413 10.5027 13.3702 10.5068 13.5 10.5068Z" fill="white"/>
<path d="M5.00003 3.59265L7.33056 5.92319C7.3027 5.96311 7.27496 5.99181 7.24946 6.01306L5.79994 7.22099L3.58582 5.00687H2.30905C2.11966 5.00687 1.94653 4.89987 1.86184 4.73047L0.161199 1.3292C0.0649516 1.13671 0.102678 0.904221 0.254859 0.752041L0.745205 0.261695C0.897385 0.109515 1.12987 0.0717874 1.32237 0.168035L4.72364 1.86867C4.89303 1.95337 5.00003 2.1265 5.00003 2.31588V3.59265Z" fill="white"/>
</svg>
