<svg width="12" height="14" viewBox="0 0 12 14" fill="none" xmlns="http://www.w3.org/2000/svg">
<path fill-rule="evenodd" clip-rule="evenodd" d="M2.99989 3C2.99989 1.34315 4.34304 0 5.99989 0C7.65675 0 8.99989 1.34315 8.99989 3V4H9.64241C10.413 4 11.0583 4.58394 11.135 5.35074L11.835 12.3507C11.9233 13.2338 11.2298 14 10.3424 14H1.65737C0.76994 14 0.076514 13.2338 0.164817 12.3507L0.864817 5.35075C0.941497 4.58394 1.58675 4 2.35737 4H2.99989V3ZM7.49989 3V4H4.49989V3C4.49989 2.17157 5.17146 1.5 5.99989 1.5C6.82832 1.5 7.49989 2.17157 7.49989 3ZM4.49988 6.75C4.49988 6.33579 4.16409 6 3.74988 6C3.33566 6 2.99988 6.33579 2.99988 6.75V7.75C2.99988 9.40685 4.34302 10.75 5.99988 10.75C7.65673 10.75 8.99988 9.40685 8.99988 7.75V6.75C8.99988 6.33579 8.66409 6 8.24988 6C7.83566 6 7.49988 6.33579 7.49988 6.75V7.75C7.49988 8.57843 6.82831 9.25 5.99988 9.25C5.17145 9.25 4.49988 8.57843 4.49988 7.75V6.75Z" fill="white"/>
</svg>
