<svg width="16" height="18" viewBox="0 0 16 18" fill="none" xmlns="http://www.w3.org/2000/svg">
<path d="M1.19569 11.8717L0.37071 12.3553C0.14108 12.4899 0 12.7361 0 13.0023C0 13.2685 0.14108 13.5147 0.37071 13.6493L7.62071 17.8993C7.85493 18.0366 8.14507 18.0366 8.37929 17.8993L15.6293 13.6493C15.8589 13.5147 16 13.2685 16 13.0023C16 12.7361 15.8589 12.4899 15.6293 12.3553L14.8043 11.8717L9.13787 15.1934C8.43521 15.6053 7.56479 15.6053 6.86213 15.1934L1.19569 11.8717Z" fill="white"/>
<path d="M1.19569 7.87169L0.37071 8.3553C0.14108 8.48991 0 8.73614 0 9.00232C0 9.2685 0.14108 9.51473 0.37071 9.64934L7.62071 13.8993C7.85493 14.0366 8.14507 14.0366 8.37929 13.8993L15.6293 9.64934C15.8589 9.51473 16 9.2685 16 9.00232C16 8.73614 15.8589 8.48991 15.6293 8.3553L14.8043 7.87169L9.13787 11.1934C8.43521 11.6053 7.56479 11.6053 6.86213 11.1934L1.19569 7.87169Z" fill="white"/>
<path d="M8.37929 0.105296C8.14507 -0.0320062 7.85493 -0.0320062 7.62071 0.105296L0.37071 4.3553C0.14108 4.48991 0 4.73614 0 5.00232C0 5.2685 0.14108 5.51473 0.37071 5.64934L7.62071 9.89934C7.85493 10.0366 8.14507 10.0366 8.37929 9.89934L15.6293 5.64934C15.8589 5.51473 16 5.2685 16 5.00232C16 4.73614 15.8589 4.48991 15.6293 4.3553L8.37929 0.105296Z" fill="white"/>
</svg>
