<svg width="10" height="10" viewBox="0 0 10 10" fill="none" xmlns="http://www.w3.org/2000/svg">
<path d="M1.28033 0.226506C0.987437 -0.0663874 0.512563 -0.0663874 0.21967 0.226506C-0.0732233 0.519399 -0.0732233 0.994273 0.21967 1.28717L3.93934 5.00684L0.21967 8.72651C-0.0732233 9.0194 -0.0732233 9.49427 0.21967 9.78717C0.512563 10.0801 0.987437 10.0801 1.28033 9.78717L5 6.0675L8.71967 9.78717C9.01256 10.0801 9.48744 10.0801 9.78033 9.78717C10.0732 9.49427 10.0732 9.0194 9.78033 8.72651L6.06066 5.00684L9.78033 1.28717C10.0732 0.994273 10.0732 0.519399 9.78033 0.226506C9.48744 -0.0663874 9.01256 -0.0663874 8.71967 0.226506L5 3.94618L1.28033 0.226506Z" fill="white"/>
</svg>
