<svg width="18" height="18" viewBox="0 0 18 18" fill="none" xmlns="http://www.w3.org/2000/svg">
<path d="M8.66413 0.318659C8.87552 0.212791 9.12445 0.212791 9.33584 0.318659C12.2902 1.7983 15.0408 3.6242 17.5343 5.74302C17.7415 5.91909 17.8372 6.1935 17.7844 6.46023C17.7316 6.72695 17.5385 6.9442 17.2799 7.02802C14.4656 7.94004 11.8246 9.23758 9.41911 10.8586C9.16577 11.0293 8.8342 11.0293 8.58086 10.8586C7.90534 10.4034 7.21125 9.97369 6.49997 9.57086V8.39384C6.49997 8.1503 6.61572 7.93111 6.80165 7.80225C7.86302 7.0666 8.96638 6.38737 10.1074 5.76888C10.4715 5.57149 10.6067 5.11626 10.4093 4.75211C10.2119 4.38795 9.75672 4.25276 9.39256 4.45016C8.20323 5.09484 7.05326 5.80277 5.94716 6.56942C5.3428 6.98831 4.99997 7.67582 4.99997 8.39384V8.7741C3.62709 8.09181 2.19747 7.5068 0.720098 7.02802C0.46144 6.9442 0.268407 6.72695 0.215596 6.46023C0.162784 6.1935 0.258466 5.91909 0.465666 5.74302C2.95918 3.6242 5.70972 1.7983 8.66413 0.318659Z" fill="#B74D1A"/>
<path d="M4.99997 10.4596C4.20208 10.0378 3.38297 9.65099 2.54469 9.30117C2.37611 10.3268 2.24559 11.3652 2.15464 12.415C2.12783 12.7244 2.29452 13.0184 2.57385 13.1542C3.10178 13.4109 3.61994 13.6847 4.12759 13.9748C3.91888 14.2987 3.67271 14.6055 3.38907 14.8891C3.09618 15.182 3.09618 15.6569 3.38907 15.9497C3.68197 16.2426 4.15684 16.2426 4.44973 15.9497C4.81938 15.5801 5.13906 15.1793 5.40876 14.7558C6.49842 15.4631 7.53293 16.2484 8.50439 17.1037C8.78772 17.3532 9.21231 17.3532 9.49564 17.1037C11.2768 15.5355 13.2699 14.2028 15.4262 13.1542C15.7055 13.0184 15.8722 12.7244 15.8454 12.415C15.7544 11.3652 15.6239 10.3268 15.4553 9.30115C13.6241 10.0653 11.8844 11.0061 10.2574 12.1025C9.49736 12.6147 8.50263 12.6147 7.7426 12.1025C7.33322 11.8267 6.91669 11.5606 6.49337 11.3048C6.44116 12.5085 6.07957 13.7023 5.40876 14.7558C4.98971 14.4837 4.5625 14.2233 4.12759 13.9748C4.70922 13.0721 4.99997 12.0367 4.99997 11V10.4596Z" fill="#B74D1A"/>
</svg>
