<svg width="18" height="16" viewBox="0 0 18 16" fill="none" xmlns="http://www.w3.org/2000/svg">
<path fill-rule="evenodd" clip-rule="evenodd" d="M0 0.752319C0 0.338106 0.335786 0.00231934 0.75 0.00231934H11.25C11.6642 0.00231934 12 0.338106 12 0.752319C12 1.16653 11.6642 1.50232 11.25 1.50232H11V15.2523C11 15.6665 10.6642 16.0023 10.25 16.0023H8.75C8.33579 16.0023 8 15.6665 8 15.2523V12.7523C8 12.3381 7.66421 12.0023 7.25 12.0023H4.75C4.33579 12.0023 4 12.3381 4 12.7523V15.2523C4 15.6665 3.66421 16.0023 3.25 16.0023H0.75C0.335786 16.0023 0 15.6665 0 15.2523C0 14.8381 0.335786 14.5023 0.75 14.5023H1V1.50232H0.75C0.335786 1.50232 0 1.16653 0 0.752319ZM3 3.50232C3 3.22618 3.22386 3.00232 3.5 3.00232H4.5C4.77614 3.00232 5 3.22618 5 3.50232V4.50232C5 4.77846 4.77614 5.00232 4.5 5.00232H3.5C3.22386 5.00232 3 4.77846 3 4.50232V3.50232ZM3.5 7.00232C3.22386 7.00232 3 7.22618 3 7.50232V8.50232C3 8.77846 3.22386 9.00232 3.5 9.00232H4.5C4.77614 9.00232 5 8.77846 5 8.50232V7.50232C5 7.22618 4.77614 7.00232 4.5 7.00232H3.5ZM7 3.50232C7 3.22618 7.22386 3.00232 7.5 3.00232H8.5C8.77614 3.00232 9 3.22618 9 3.50232V4.50232C9 4.77846 8.77614 5.00232 8.5 5.00232H7.5C7.22386 5.00232 7 4.77846 7 4.50232V3.50232ZM7.5 7.00232C7.22386 7.00232 7 7.22618 7 7.50232V8.50232C7 8.77846 7.22386 9.00232 7.5 9.00232H8.5C8.77614 9.00232 9 8.77846 9 8.50232V7.50232C9 7.22618 8.77614 7.00232 8.5 7.00232H7.5Z" fill="#5ABE89"/>
<path fill-rule="evenodd" clip-rule="evenodd" d="M13.25 4.00232C12.8358 4.00232 12.5 4.33811 12.5 4.75232V15.0023C12.5 15.5546 12.9477 16.0023 13.5 16.0023H17.25C17.6642 16.0023 18 15.6665 18 15.2523C18 14.8381 17.6642 14.5023 17.25 14.5023H17V5.50232H17.25C17.6642 5.50232 18 5.16653 18 4.75232C18 4.33811 17.6642 4.00232 17.25 4.00232H13.25ZM13.75 7.50232C13.75 7.22618 13.9739 7.00232 14.25 7.00232H15.25C15.5261 7.00232 15.75 7.22618 15.75 7.50232V8.50232C15.75 8.77846 15.5261 9.00232 15.25 9.00232H14.25C13.9739 9.00232 13.75 8.77846 13.75 8.50232V7.50232ZM14.25 11.0023C13.9739 11.0023 13.75 11.2262 13.75 11.5023V12.5023C13.75 12.7785 13.9739 13.0023 14.25 13.0023H15.25C15.5261 13.0023 15.75 12.7785 15.75 12.5023V11.5023C15.75 11.2262 15.5261 11.0023 15.25 11.0023H14.25Z" fill="#5ABE89"/>
</svg>
