<svg width="16" height="16" viewBox="0 0 16 16" fill="none" xmlns="http://www.w3.org/2000/svg">
<path d="M14.5546 3.41679C13.6845 2.17602 12.4711 1.19361 11.0522 0.60752C11.8305 1.97774 12.3991 3.48253 12.7147 5.07831C13.4062 4.61647 14.0263 4.05592 14.5546 3.41679Z" fill="#A54B7A"/>
<path d="M11.3257 5.82942C10.9801 3.69605 10.1346 1.73027 8.91318 0.056187C8.6135 0.0221338 8.30879 0.00463867 8 0.00463867C7.69121 0.00463867 7.3865 0.0221338 7.08682 0.056187C5.86543 1.73027 5.0199 3.69605 4.67433 5.82942C5.69581 6.26412 6.81982 6.50464 8 6.50464C9.18018 6.50464 10.3042 6.26412 11.3257 5.82942Z" fill="#A54B7A"/>
<path d="M4.51418 7.38032C5.59957 7.78402 6.77402 8.00464 8 8.00464C9.22598 8.00464 10.4004 7.78402 11.4858 7.38032C11.4952 7.58725 11.5 7.79538 11.5 8.00464C11.5 9.08364 11.3734 10.1331 11.1343 11.1389C10.1284 11.378 9.07901 11.5046 8 11.5046C6.92099 11.5046 5.87155 11.378 4.86572 11.1389C4.62659 10.1331 4.5 9.08364 4.5 8.00464C4.5 7.79538 4.50476 7.58725 4.51418 7.38032Z" fill="#A54B7A"/>
<path d="M3.28529 5.07831C3.60086 3.48252 4.16954 1.97773 4.94776 0.607517C3.52894 1.1936 2.3155 2.17602 1.44542 3.41679C1.97374 4.05591 2.59375 4.61647 3.28529 5.07831Z" fill="#A54B7A"/>
<path d="M15.3336 4.80306C15.7622 5.78342 16 6.86626 16 8.00464C16 8.31343 15.9825 8.61814 15.9484 8.91782C14.9787 9.62535 13.911 10.2067 12.7696 10.6379C12.921 9.78297 13 8.90303 13 8.00464C13 7.56474 12.9811 7.12927 12.944 6.69899C13.8352 6.19109 14.6408 5.5501 15.3336 4.80306Z" fill="#A54B7A"/>
<path d="M0.666359 4.80306C1.3592 5.5501 2.16477 6.19109 3.05604 6.69899C3.01894 7.12927 3 7.56474 3 8.00464C3 8.90303 3.07898 9.78297 3.23037 10.6379C2.08897 10.2067 1.02132 9.62535 0.0515484 8.91782C0.0174952 8.61814 0 8.31343 0 8.00464C0 6.86626 0.237771 5.78342 0.666359 4.80306Z" fill="#A54B7A"/>
<path d="M8 13.0046C8.89839 13.0046 9.77833 12.9257 10.6333 12.7743C10.2021 13.9157 9.62071 14.9833 8.91318 15.9531C8.6135 15.9871 8.30879 16.0046 8 16.0046C7.69121 16.0046 7.3865 15.9871 7.08682 15.9531C6.37929 14.9833 5.79789 13.9157 5.36674 12.7743C6.22167 12.9257 7.10161 13.0046 8 13.0046Z" fill="#A54B7A"/>
<path d="M12.3573 12.362C12.0334 13.4306 11.5935 14.4487 11.0522 15.4018C13.0158 14.5906 14.586 13.0205 15.3971 11.0569C14.4441 11.5982 13.4259 12.0381 12.3573 12.362Z" fill="#A54B7A"/>
<path d="M4.94776 15.4018C2.98419 14.5906 1.41399 13.0205 0.602881 11.0569C1.55593 11.5982 2.57408 12.0381 3.64268 12.362C3.96656 13.4306 4.40648 14.4487 4.94776 15.4018Z" fill="#A54B7A"/>
</svg>
