<svg width="16" height="16" viewBox="0 0 16 16" fill="none" xmlns="http://www.w3.org/2000/svg">
<path fill-rule="evenodd" clip-rule="evenodd" d="M7.67411 0.0769056C7.88011 -0.0225428 8.12023 -0.0225428 8.32623 0.0769056L15.5762 3.57691C15.9493 3.75698 16.1057 4.20536 15.9256 4.57838C15.7576 4.92635 15.3561 5.08583 15.0002 4.9595V14.5023H15.2502C15.6644 14.5023 16.0002 14.8381 16.0002 15.2523C16.0002 15.6665 15.6644 16.0023 15.2502 16.0023H0.750172C0.335959 16.0023 0.000172091 15.6665 0.000172091 15.2523C0.000172091 14.8381 0.335959 14.5023 0.750172 14.5023H1.00017V4.9595C0.644205 5.08583 0.242745 4.92635 0.0747584 4.57838C-0.105321 4.20536 0.0510896 3.75698 0.42411 3.57691L7.67411 0.0769056ZM9 4.00232C9 4.5546 8.55228 5.00232 8 5.00232C7.44772 5.00232 7 4.5546 7 4.00232C7 3.45003 7.44772 3.00232 8 3.00232C8.55228 3.00232 9 3.45003 9 4.00232ZM5.5 7.75232C5.5 7.33811 5.16421 7.00232 4.75 7.00232C4.33579 7.00232 4 7.33811 4 7.75232V13.2523C4 13.6665 4.33579 14.0023 4.75 14.0023C5.16421 14.0023 5.5 13.6665 5.5 13.2523V7.75232ZM8.75 7.75232C8.75 7.33811 8.41421 7.00232 8 7.00232C7.58579 7.00232 7.25 7.33811 7.25 7.75232V13.2523C7.25 13.6665 7.58579 14.0023 8 14.0023C8.41421 14.0023 8.75 13.6665 8.75 13.2523V7.75232ZM12 7.75232C12 7.33811 11.6642 7.00232 11.25 7.00232C10.8358 7.00232 10.5 7.33811 10.5 7.75232V13.2523C10.5 13.6665 10.8358 14.0023 11.25 14.0023C11.6642 14.0023 12 13.6665 12 13.2523V7.75232Z" fill="#B74D1A"/>
</svg>
