<svg width="14" height="19" viewBox="0 0 14 19" fill="none" xmlns="http://www.w3.org/2000/svg">
<path fill-rule="evenodd" clip-rule="evenodd" d="M7 0.0115967C4.51472 0.0115967 2.5 2.02632 2.5 4.5116V8.0116H2C0.895431 8.0116 0 8.90703 0 10.0116V16.0116C0 17.1162 0.89543 18.0116 2 18.0116H12C13.1046 18.0116 14 17.1162 14 16.0116V10.0116C14 8.90703 13.1046 8.0116 12 8.0116H11.5V4.5116C11.5 2.02632 9.48528 0.0115967 7 0.0115967ZM10 8.0116V4.5116C10 2.85474 8.65685 1.5116 7 1.5116C5.34315 1.5116 4 2.85474 4 4.5116V8.0116H10Z" fill="#5ABE89"/>
</svg>
