<svg width="16" height="17" viewBox="0 0 16 17" fill="none" xmlns="http://www.w3.org/2000/svg">
<path fill-rule="evenodd" clip-rule="evenodd" d="M7 1.5116C3.96243 1.5116 1.5 3.97403 1.5 7.0116C1.5 10.0492 3.96243 12.5116 7 12.5116C8.51899 12.5116 9.89296 11.8968 10.8891 10.9007C11.8852 9.90456 12.5 8.53059 12.5 7.0116C12.5 3.97403 10.0376 1.5116 7 1.5116ZM0 7.0116C0 3.1456 3.13401 0.0115967 7 0.0115967C10.866 0.0115967 14 3.1456 14 7.0116C14 8.67412 13.4197 10.2022 12.4517 11.4027L15.7803 14.7313C16.0732 15.0242 16.0732 15.499 15.7803 15.7919C15.4874 16.0848 15.0126 16.0848 14.7197 15.7919L11.3911 12.4633C10.1906 13.4313 8.66252 14.0116 7 14.0116C3.13401 14.0116 0 10.8776 0 7.0116Z" fill="white"/>
</svg>
