<svg width="16" height="17" viewBox="0 0 16 17" fill="none" xmlns="http://www.w3.org/2000/svg">
<path fill-rule="evenodd" clip-rule="evenodd" d="M0 1.5116C0 0.683169 0.671573 0.0115967 1.5 0.0115967H10.5C11.3284 0.0115967 12 0.683169 12 1.5116V13.2616C12 14.7804 13.2312 16.0116 14.75 16.0116H2.75C1.23122 16.0116 0 14.7804 0 13.2616V1.5116ZM3.75 8.5116C3.33579 8.5116 3 8.84738 3 9.2616C3 9.67581 3.33579 10.0116 3.75 10.0116H8.25C8.66421 10.0116 9 9.67581 9 9.2616C9 8.84738 8.66421 8.5116 8.25 8.5116H3.75ZM3.75 11.5116C3.33579 11.5116 3 11.8474 3 12.2616C3 12.6758 3.33579 13.0116 3.75 13.0116H8.25C8.66421 13.0116 9 12.6758 9 12.2616C9 11.8474 8.66421 11.5116 8.25 11.5116H3.75ZM3 3.7616C3 3.34738 3.33579 3.0116 3.75 3.0116H8.25C8.66421 3.0116 9 3.34738 9 3.7616V6.2616C9 6.67581 8.66421 7.0116 8.25 7.0116H3.75C3.33579 7.0116 3 6.67581 3 6.2616V3.7616Z" fill="#A54B7A"/>
<path d="M14.5 4.5116H13.5V13.2616C13.5 13.952 14.0596 14.5116 14.75 14.5116C15.4404 14.5116 16 13.952 16 13.2616V6.0116C16 5.18317 15.3284 4.5116 14.5 4.5116Z" fill="#A54B7A"/>
</svg>
