<svg width="28" height="29" viewBox="0 0 28 29" fill="none" xmlns="http://www.w3.org/2000/svg">
<path fill-rule="evenodd" clip-rule="evenodd" d="M10.3271 0.25C7.01313 0.25 4.08295 2.4003 3.09116 5.56009L0.363586 14.25L3.09116 22.9399C4.08295 26.0997 7.01313 28.25 10.3271 28.25H17.6743C20.9883 28.25 23.9185 26.0997 24.9102 22.9399L27.6379 14.25L24.9102 5.56009C23.9185 2.4003 20.9883 0.25 17.6743 0.25H10.3271ZM17.6744 2.4343C20.0332 2.4343 22.1188 3.9648 22.8247 6.2138L23.4934 8.34429C22.1481 7.23385 20.4445 6.60883 18.6641 6.60869L9.3175 6.60844C7.54894 6.60857 5.85637 7.22522 4.51536 8.32171L5.17699 6.2138C5.88291 3.9648 7.96848 2.4343 10.3272 2.4343H17.6744ZM5.01991 10.9238L3.32155 13.1579H24.6598L22.9616 10.924C21.941 9.58152 20.3511 8.79311 18.6639 8.79298H9.26657C7.59845 8.80884 6.03016 9.59482 5.01991 10.9238ZM24.6563 15.3422L22.9615 17.574C21.9409 18.918 20.3497 19.7074 18.6613 19.7072L9.32003 19.707C7.6316 19.7071 6.04042 18.9178 5.01979 17.5738L3.32513 15.3422H24.6563ZM5.17685 22.2862C5.88277 24.5352 7.96835 26.0657 10.3271 26.0657H17.6743C20.033 26.0657 22.1186 24.5352 22.8245 22.2862L23.4937 20.1542C22.1478 21.2659 20.443 21.8916 18.6611 21.8916L9.32012 21.8913C7.55016 21.8915 5.85619 21.274 4.51454 20.1761L5.17685 22.2862Z" fill="white"/>
</svg>
