<svg width="16" height="16" viewBox="0 0 16 16" fill="none" xmlns="http://www.w3.org/2000/svg">
<path fill-rule="evenodd" clip-rule="evenodd" d="M16 8.00684C16 12.4251 12.4183 16.0068 8 16.0068C3.58172 16.0068 0 12.4251 0 8.00684C0 3.58856 3.58172 0.00683594 8 0.00683594C12.4183 0.00683594 16 3.58856 16 8.00684ZM10.5 5.50684C10.5 6.88755 9.38071 8.00684 8 8.00684C6.61929 8.00684 5.5 6.88755 5.5 5.50684C5.5 4.12612 6.61929 3.00684 8 3.00684C9.38071 3.00684 10.5 4.12612 10.5 5.50684ZM8 10.0068C6.04133 10.0068 4.30187 10.9454 3.20679 12.3972C4.39509 13.6939 6.1026 14.5068 8 14.5068C9.8974 14.5068 11.6049 13.6939 12.7932 12.3972C11.6981 10.9454 9.95867 10.0068 8 10.0068Z" fill="#B74D1A"/>
</svg>
